# xmcd
#
# Track frame offsets: 
#        150
#        13105
#        30822
#        46325
#        67072
#        80890
#        95405
#        107220
#        126082
#        149200
#        167812
#        186200
#        201095
#        215975
#        225747
#
# Disc length: 3149 seconds
#
# Revision: 1
# Processed by: cddbd v1.5.2PL0 Copyright (c) Steve Scherf et al.
# Submitted via: ExactAudioCopy v0.99pb3
#
DISCID=e20c4b0f
DTITLE=James Mathus and His Knockdown Society - National Antiseptic
DYEAR=1900
DGENRE=
TTITLE0=Call Your Dawgs Off
TTITLE1=Take A Ride With Me
TTITLE2=Snake Drive
TTITLE3=Drinkin' Antiseptic
TTITLE4=Stranger
TTITLE5=Innit For The Money
TTITLE6=Shake It And Break It
TTITLE7=Rock Of Ages
TTITLE8=Boogie
TTITLE9=Issaqueena St. Shuffle
TTITLE10=Spare Change
TTITLE11=Chicken Town
TTITLE12=Hambone
TTITLE13=Back To The Bottoms
TTITLE14=Nightingale
EXTD=
EXTT0=
EXTT1=
EXTT2=
EXTT3=
EXTT4=
EXTT5=
EXTT6=
EXTT7=
EXTT8=
EXTT9=
EXTT10=
EXTT11=
EXTT12=
EXTT13=
EXTT14=
PLAYORDER=
